<?xml version="1.0" encoding="UTF-8" standalone="no"?>
<!DOCTYPE svg PUBLIC "-//W3C//DTD SVG 1.1//EN"
 "http://www.w3.org/Graphics/SVG/1.1/DTD/svg11.dtd">
<!-- Generated by graphviz version 2.40.1 (20161225.0304)
 -->
<!-- Title: snakemake_dag Pages: 1 -->
<svg width="284pt" height="476pt"
 viewBox="0.00 0.00 283.81 476.00" xmlns="http://www.w3.org/2000/svg" xmlns:xlink="http://www.w3.org/1999/xlink">
<g id="graph0" class="graph" transform="scale(1 1) rotate(0) translate(4 472)">
<title>snakemake_dag</title>
<polygon fill="#ffffff" stroke="transparent" points="-4,4 -4,-472 279.8148,-472 279.8148,4 -4,4"/>
<!-- 0 -->
<g id="node1" class="node">
<title>0</title>
<path fill="none" stroke="#56d88a" stroke-width="2" d="M93.6149,-180C93.6149,-180 42.6149,-180 42.6149,-180 36.6149,-180 30.6149,-174 30.6149,-168 30.6149,-168 30.6149,-156 30.6149,-156 30.6149,-150 36.6149,-144 42.6149,-144 42.6149,-144 93.6149,-144 93.6149,-144 99.6149,-144 105.6149,-150 105.6149,-156 105.6149,-156 105.6149,-168 105.6149,-168 105.6149,-174 99.6149,-180 93.6149,-180"/>
<text text-anchor="middle" x="68.1149" y="-159.5" font-family="sans" font-size="10.00" fill="#000000">uniprot_info</text>
</g>
<!-- 7 -->
<g id="node8" class="node">
<title>7</title>
<path fill="none" stroke="#d88d56" stroke-width="2" d="M207.1149,-108C207.1149,-108 177.1149,-108 177.1149,-108 171.1149,-108 165.1149,-102 165.1149,-96 165.1149,-96 165.1149,-84 165.1149,-84 165.1149,-78 171.1149,-72 177.1149,-72 177.1149,-72 207.1149,-72 207.1149,-72 213.1149,-72 219.1149,-78 219.1149,-84 219.1149,-84 219.1149,-96 219.1149,-96 219.1149,-102 213.1149,-108 207.1149,-108"/>
<text text-anchor="middle" x="192.1149" y="-87.5" font-family="sans" font-size="10.00" fill="#000000">report</text>
</g>
<!-- 0&#45;&gt;7 -->
<g id="edge12" class="edge">
<title>0&#45;&gt;7</title>
<path fill="none" stroke="#c0c0c0" stroke-width="2" d="M99.4054,-143.8314C116.6345,-133.8273 138.0965,-121.3655 156.0306,-110.9522"/>
<polygon fill="#c0c0c0" stroke="#c0c0c0" stroke-width="2" points="158.1559,-113.7655 165.0463,-105.7173 154.6409,-107.7119 158.1559,-113.7655"/>
</g>
<!-- 1 -->
<g id="node2" class="node">
<title>1</title>
<path fill="none" stroke="#56c1d8" stroke-width="2" stroke-dasharray="5,2" d="M86.6149,-468C86.6149,-468 49.6149,-468 49.6149,-468 43.6149,-468 37.6149,-462 37.6149,-456 37.6149,-456 37.6149,-444 37.6149,-444 37.6149,-438 43.6149,-432 49.6149,-432 49.6149,-432 86.6149,-432 86.6149,-432 92.6149,-432 98.6149,-438 98.6149,-444 98.6149,-444 98.6149,-456 98.6149,-456 98.6149,-462 92.6149,-468 86.6149,-468"/>
<text text-anchor="middle" x="68.1149" y="-447.5" font-family="sans" font-size="10.00" fill="#000000">open_file</text>
</g>
<!-- 1&#45;&gt;7 -->
<g id="edge13" class="edge">
<title>1&#45;&gt;7</title>
<path fill="none" stroke="#c0c0c0" stroke-width="2" d="M53.4674,-431.6749C34.0233,-405.4479 2.1149,-354.9514 2.1149,-306 2.1149,-306 2.1149,-306 2.1149,-234 2.1149,-193.1184 -6.3448,-174.2865 21.1149,-144 39.1572,-124.1005 110.5708,-106.4927 155.2075,-97.1286"/>
<polygon fill="#c0c0c0" stroke="#c0c0c0" stroke-width="2" points="156.0222,-100.5344 165.1131,-95.0932 154.6133,-93.6776 156.0222,-100.5344"/>
</g>
<!-- 8 -->
<g id="node9" class="node">
<title>8</title>
<path fill="none" stroke="#d85656" stroke-width="2" stroke-dasharray="5,2" d="M217.1149,-396C217.1149,-396 173.1149,-396 173.1149,-396 167.1149,-396 161.1149,-390 161.1149,-384 161.1149,-384 161.1149,-372 161.1149,-372 161.1149,-366 167.1149,-360 173.1149,-360 173.1149,-360 217.1149,-360 217.1149,-360 223.1149,-360 229.1149,-366 229.1149,-372 229.1149,-372 229.1149,-384 229.1149,-384 229.1149,-390 223.1149,-396 217.1149,-396"/>
<text text-anchor="middle" x="195.1149" y="-375.5" font-family="sans" font-size="10.00" fill="#000000">get_PMIDs</text>
</g>
<!-- 1&#45;&gt;8 -->
<g id="edge14" class="edge">
<title>1&#45;&gt;8</title>
<path fill="none" stroke="#c0c0c0" stroke-width="2" d="M98.8581,-432.5708C115.4866,-423.1436 136.2421,-411.3767 154.2182,-401.1855"/>
<polygon fill="#c0c0c0" stroke="#c0c0c0" stroke-width="2" points="156.3555,-403.9972 163.3286,-396.0206 152.9032,-397.9078 156.3555,-403.9972"/>
</g>
<!-- 2 -->
<g id="node3" class="node">
<title>2</title>
<path fill="none" stroke="#88d856" stroke-width="2" d="M149.1149,-252C149.1149,-252 119.1149,-252 119.1149,-252 113.1149,-252 107.1149,-246 107.1149,-240 107.1149,-240 107.1149,-228 107.1149,-228 107.1149,-222 113.1149,-216 119.1149,-216 119.1149,-216 149.1149,-216 149.1149,-216 155.1149,-216 161.1149,-222 161.1149,-228 161.1149,-228 161.1149,-240 161.1149,-240 161.1149,-246 155.1149,-252 149.1149,-252"/>
<text text-anchor="middle" x="134.1149" y="-231.5" font-family="sans" font-size="10.00" fill="#000000">gen_ids</text>
</g>
<!-- 2&#45;&gt;0 -->
<g id="edge1" class="edge">
<title>2&#45;&gt;0</title>
<path fill="none" stroke="#c0c0c0" stroke-width="2" d="M117.4604,-215.8314C109.7035,-207.3694 100.3348,-197.1489 91.8539,-187.8971"/>
<polygon fill="#c0c0c0" stroke="#c0c0c0" stroke-width="2" points="94.3311,-185.4198 84.9938,-180.4133 89.171,-190.1499 94.3311,-185.4198"/>
</g>
<!-- 2&#45;&gt;7 -->
<g id="edge7" class="edge">
<title>2&#45;&gt;7</title>
<path fill="none" stroke="#c0c0c0" stroke-width="2" d="M135.7227,-215.7295C137.8754,-197.0458 142.707,-167.5099 153.1149,-144 157.3984,-134.3244 163.6021,-124.6668 169.8062,-116.2504"/>
<polygon fill="#c0c0c0" stroke="#c0c0c0" stroke-width="2" points="172.6068,-118.3501 175.9393,-108.293 167.0624,-114.0769 172.6068,-118.3501"/>
</g>
<!-- 3 -->
<g id="node4" class="node">
<title>3</title>
<path fill="none" stroke="#56d8c1" stroke-width="2" d="M207.1149,-36C207.1149,-36 177.1149,-36 177.1149,-36 171.1149,-36 165.1149,-30 165.1149,-24 165.1149,-24 165.1149,-12 165.1149,-12 165.1149,-6 171.1149,0 177.1149,0 177.1149,0 207.1149,0 207.1149,0 213.1149,0 219.1149,-6 219.1149,-12 219.1149,-12 219.1149,-24 219.1149,-24 219.1149,-30 213.1149,-36 207.1149,-36"/>
<text text-anchor="middle" x="192.1149" y="-15.5" font-family="sans" font-size="10.00" fill="#000000">all</text>
</g>
<!-- 4 -->
<g id="node5" class="node">
<title>4</title>
<path fill="none" stroke="#568ad8" stroke-width="2" d="M210.1149,-180C210.1149,-180 174.1149,-180 174.1149,-180 168.1149,-180 162.1149,-174 162.1149,-168 162.1149,-168 162.1149,-156 162.1149,-156 162.1149,-150 168.1149,-144 174.1149,-144 174.1149,-144 210.1149,-144 210.1149,-144 216.1149,-144 222.1149,-150 222.1149,-156 222.1149,-156 222.1149,-168 222.1149,-168 222.1149,-174 216.1149,-180 210.1149,-180"/>
<text text-anchor="middle" x="192.1149" y="-159.5" font-family="sans" font-size="10.00" fill="#000000">visualise</text>
</g>
<!-- 4&#45;&gt;7 -->
<g id="edge8" class="edge">
<title>4&#45;&gt;7</title>
<path fill="none" stroke="#c0c0c0" stroke-width="2" d="M192.1149,-143.8314C192.1149,-136.131 192.1149,-126.9743 192.1149,-118.4166"/>
<polygon fill="#c0c0c0" stroke="#c0c0c0" stroke-width="2" points="195.615,-118.4132 192.1149,-108.4133 188.615,-118.4133 195.615,-118.4132"/>
</g>
<!-- 5 -->
<g id="node6" class="node">
<title>5</title>
<path fill="none" stroke="#d8bc56" stroke-width="2" d="M240.6149,-324C240.6149,-324 199.6149,-324 199.6149,-324 193.6149,-324 187.6149,-318 187.6149,-312 187.6149,-312 187.6149,-300 187.6149,-300 187.6149,-294 193.6149,-288 199.6149,-288 199.6149,-288 240.6149,-288 240.6149,-288 246.6149,-288 252.6149,-294 252.6149,-300 252.6149,-300 252.6149,-312 252.6149,-312 252.6149,-318 246.6149,-324 240.6149,-324"/>
<text text-anchor="middle" x="220.1149" y="-303.5" font-family="sans" font-size="10.00" fill="#000000">gene_info</text>
</g>
<!-- 6 -->
<g id="node7" class="node">
<title>6</title>
<path fill="none" stroke="#bed856" stroke-width="2" d="M235.1149,-252C235.1149,-252 205.1149,-252 205.1149,-252 199.1149,-252 193.1149,-246 193.1149,-240 193.1149,-240 193.1149,-228 193.1149,-228 193.1149,-222 199.1149,-216 205.1149,-216 205.1149,-216 235.1149,-216 235.1149,-216 241.1149,-216 247.1149,-222 247.1149,-228 247.1149,-228 247.1149,-240 247.1149,-240 247.1149,-246 241.1149,-252 235.1149,-252"/>
<text text-anchor="middle" x="220.1149" y="-231.5" font-family="sans" font-size="10.00" fill="#000000">seq_gc</text>
</g>
<!-- 5&#45;&gt;6 -->
<g id="edge6" class="edge">
<title>5&#45;&gt;6</title>
<path fill="none" stroke="#c0c0c0" stroke-width="2" d="M220.1149,-287.8314C220.1149,-280.131 220.1149,-270.9743 220.1149,-262.4166"/>
<polygon fill="#c0c0c0" stroke="#c0c0c0" stroke-width="2" points="223.615,-262.4132 220.1149,-252.4133 216.615,-262.4133 223.615,-262.4132"/>
</g>
<!-- 5&#45;&gt;7 -->
<g id="edge10" class="edge">
<title>5&#45;&gt;7</title>
<path fill="none" stroke="#c0c0c0" stroke-width="2" d="M236.1054,-287.9169C243.7688,-278.0371 252.1315,-265.1563 256.1149,-252 263.3964,-227.9509 247.8067,-145.3981 247.1149,-144 241.7449,-133.1466 233.2989,-123.2188 224.6227,-114.9184"/>
<polygon fill="#c0c0c0" stroke="#c0c0c0" stroke-width="2" points="226.7827,-112.1535 217.0103,-108.0607 222.0975,-117.3544 226.7827,-112.1535"/>
</g>
<!-- 6&#45;&gt;4 -->
<g id="edge4" class="edge">
<title>6&#45;&gt;4</title>
<path fill="none" stroke="#c0c0c0" stroke-width="2" d="M213.0494,-215.8314C209.9889,-207.9617 206.3371,-198.5712 202.9468,-189.8533"/>
<polygon fill="#c0c0c0" stroke="#c0c0c0" stroke-width="2" points="206.1622,-188.4647 199.2757,-180.4133 199.6382,-191.0019 206.1622,-188.4647"/>
</g>
<!-- 6&#45;&gt;7 -->
<g id="edge11" class="edge">
<title>6&#45;&gt;7</title>
<path fill="none" stroke="#c0c0c0" stroke-width="2" d="M226.7565,-215.9791C232.5513,-197.4943 238.9123,-168.1141 231.1149,-144 227.9461,-134.2001 222.2618,-124.6831 216.1958,-116.4383"/>
<polygon fill="#c0c0c0" stroke="#c0c0c0" stroke-width="2" points="218.762,-114.0398 209.8257,-108.3483 213.2623,-118.3703 218.762,-114.0398"/>
</g>
<!-- 7&#45;&gt;3 -->
<g id="edge3" class="edge">
<title>7&#45;&gt;3</title>
<path fill="none" stroke="#c0c0c0" stroke-width="2" d="M192.1149,-71.8314C192.1149,-64.131 192.1149,-54.9743 192.1149,-46.4166"/>
<polygon fill="#c0c0c0" stroke="#c0c0c0" stroke-width="2" points="195.615,-46.4132 192.1149,-36.4133 188.615,-46.4133 195.615,-46.4132"/>
</g>
<!-- 8&#45;&gt;2 -->
<g id="edge2" class="edge">
<title>8&#45;&gt;2</title>
<path fill="none" stroke="#c0c0c0" stroke-width="2" d="M187.3892,-359.7623C176.8932,-334.9846 158.0368,-290.4714 145.804,-261.5939"/>
<polygon fill="#c0c0c0" stroke="#c0c0c0" stroke-width="2" points="148.9013,-259.9323 141.7779,-252.0896 142.4558,-262.6628 148.9013,-259.9323"/>
</g>
<!-- 8&#45;&gt;5 -->
<g id="edge5" class="edge">
<title>8&#45;&gt;5</title>
<path fill="none" stroke="#c0c0c0" stroke-width="2" d="M201.4235,-359.8314C204.1266,-352.0463 207.3466,-342.7729 210.3459,-334.1347"/>
<polygon fill="#c0c0c0" stroke="#c0c0c0" stroke-width="2" points="213.7476,-335.0081 213.7214,-324.4133 207.1349,-332.7119 213.7476,-335.0081"/>
</g>
<!-- 8&#45;&gt;7 -->
<g id="edge9" class="edge">
<title>8&#45;&gt;7</title>
<path fill="none" stroke="#c0c0c0" stroke-width="2" d="M226.2232,-359.9312C239.1065,-350.8189 252.9256,-338.588 261.1149,-324 284.7123,-281.9653 273.1183,-264.1637 271.1149,-216 269.7805,-183.9168 280.7493,-172.0478 265.1149,-144 256.741,-128.9773 242.2458,-116.9513 228.3678,-108.0964"/>
<polygon fill="#c0c0c0" stroke="#c0c0c0" stroke-width="2" points="229.786,-104.8664 219.4076,-102.7358 226.1921,-110.8734 229.786,-104.8664"/>
</g>
</g>
</svg>
